<?xml version="1.0" encoding="UTF-8"?>
<svg id="Layer_1" data-name="Layer 1" xmlns="http://www.w3.org/2000/svg" viewBox="0 0 206 206">
  <defs>
    <style>
      .cls-1 {
        fill: #231f20;
      }
    </style>
  </defs>
  <path class="cls-1" d="M169.65,0H36.35C16.27,0,0,16.27,0,36.35v133.31c0,20.07,16.27,36.35,36.35,36.35h133.31c20.07,0,36.35-16.27,36.35-36.35V36.35C206,16.27,189.73,0,169.65,0ZM169.65,48.91v120.74h-36.35v-46.19c0-9.25-11.19-13.89-17.73-7.34l-53.53,53.53h-25.7v-25.7l53.53-53.53c6.54-6.54,1.91-17.73-7.34-17.73h-46.19v-36.35h120.74c6.94,0,12.57,5.63,12.57,12.57h0Z"/>
  <circle class="cls-1" cx="133.31" cy="72.69" r="18.17"/>
</svg>