<?xml version="1.0" encoding="UTF-8"?>
<svg id="Layer_1" data-name="Layer 1" xmlns="http://www.w3.org/2000/svg" viewBox="0 0 685.29 120.16">
  <defs>
    <style>
      .cls-1 {
        fill: #231f20;
      }
    </style>
  </defs>
  <polygon class="cls-1" points="232.61 25.4 259.36 25.4 259.36 116.42 281.01 116.42 281.01 25.4 307.75 25.4 307.75 3.75 232.61 3.75 232.61 25.4"/>
  <path class="cls-1" d="M378.57,3.75h-39c-11.35,0-20.58,9.23-20.58,20.58v20.58h21.65v-16.9c0-1.43,1.17-2.6,2.6-2.6h31.65c1.43,0,2.6,1.17,2.6,2.6v18.66c0,1.43-1.17,2.6-2.6,2.6h-24.41v21.65h24.41c1.43,0,2.6,1.17,2.6,2.6v18.66c0,1.43-1.17,2.6-2.6,2.6h-31.65c-1.43,0-2.6-1.17-2.6-2.6v-16.9h-21.65v20.58c0,11.35,9.23,20.58,20.58,20.58h39c11.35,0,20.58-9.23,20.58-20.58v-19.5c0-8.07-4.74-13.95-12.58-16.26,7.84-2.31,12.58-8.19,12.58-16.26v-19.5c0-11.35-9.23-20.58-20.58-20.58ZM378.57,60.08h0,0Z"/>
  <path class="cls-1" d="M473.96,3.75h-39c-11.35,0-20.58,9.23-20.58,20.58v71.52c0,11.35,9.23,20.58,20.58,20.58h39c11.35,0,20.58-9.23,20.58-20.58V24.32c0-11.35-9.23-20.58-20.58-20.58ZM472.88,27.98v64.21c0,1.42-1.16,2.57-2.57,2.57h-31.69c-1.42,0-2.57-1.16-2.57-2.57V27.98c0-1.42,1.16-2.57,2.57-2.57h31.69c1.42,0,2.57,1.16,2.57,2.57Z"/>
  <path class="cls-1" d="M569.34,3.75h-39c-11.35,0-20.58,9.23-20.58,20.58v71.52c0,11.35,9.23,20.58,20.58,20.58h39c11.35,0,20.58-9.23,20.58-20.58V24.32c0-11.35-9.23-20.58-20.58-20.58ZM568.26,27.98v64.21c0,1.42-1.16,2.57-2.57,2.57h-31.69c-1.42,0-2.57-1.16-2.57-2.57V27.98c0-1.42,1.16-2.57,2.57-2.57h31.69c1.42,0,2.57,1.16,2.57,2.57Z"/>
  <path class="cls-1" d="M664.72,3.75h-39c-11.35,0-20.58,9.23-20.58,20.58v71.52c0,11.35,9.23,20.58,20.58,20.58h39c11.35,0,20.58-9.23,20.58-20.58V24.32c0-11.35-9.23-20.58-20.58-20.58ZM663.64,27.98v64.21c0,1.42-1.16,2.57-2.57,2.57h-31.69c-1.42,0-2.57-1.16-2.57-2.57V27.98c0-1.42,1.16-2.57,2.57-2.57h31.69c1.42,0,2.57,1.16,2.57,2.57Z"/>
  <path class="cls-1" d="M200.79,3.75h-39c-11.35,0-20.58,9.23-20.58,20.58v71.52c0,11.35,9.23,20.58,20.58,20.58h39c11.35,0,20.58-9.23,20.58-20.58v-20.58h-21.65v16.94c0,1.41-1.15,2.56-2.56,2.56h-31.73c-1.41,0-2.56-1.15-2.56-2.56V27.96c0-1.41,1.15-2.56,2.56-2.56h31.73c1.41,0,2.56,1.15,2.56,2.56v16.94h21.65v-20.58c0-11.35-9.23-20.58-20.58-20.58Z"/>
  <g>
    <path class="cls-1" d="M98.96,0H21.2C9.49,0,0,9.49,0,21.2v77.76C0,110.67,9.49,120.16,21.2,120.16h77.76c11.71,0,21.2-9.49,21.2-21.2V21.2c0-11.71-9.49-21.2-21.2-21.2ZM98.96,28.53v70.43h-21.2v-26.94c0-5.4-6.53-8.1-10.34-4.28l-31.23,31.23h-14.99v-14.99l31.23-31.23c3.82-3.82,1.11-10.34-4.28-10.34h-26.94v-21.2h70.43c4.05,0,7.33,3.28,7.33,7.33h0Z"/>
    <circle class="cls-1" cx="77.76" cy="42.4" r="10.6"/>
  </g>
</svg>