<?xml version="1.0" encoding="UTF-8"?>
<svg id="Layer_1" data-name="Layer 1" xmlns="http://www.w3.org/2000/svg" viewBox="0 0 16 16">
  <defs>
    <style>
      .cls-1 {
        fill: #231f20;
      }
    </style>
  </defs>
  <path class="cls-1" d="M13.18,0H2.82C1.26,0,0,1.26,0,2.82v10.35c0,1.56,1.26,2.82,2.82,2.82h10.35c1.56,0,2.82-1.26,2.82-2.82V2.82C16,1.26,14.74,0,13.18,0ZM13.18,3.8v9.38h-2.82v-3.59c0-.72-.87-1.08-1.38-.57l-4.16,4.16h-2v-2l4.16-4.16c.51-.51.15-1.38-.57-1.38h-3.59v-2.82h9.38c.54,0,.98.44.98.98h0Z"/>
  <circle class="cls-1" cx="10.35" cy="5.65" r="1.41"/>
</svg>